<svg width="301" height="39" viewBox="0 0 301 39" fill="none" xmlns="http://www.w3.org/2000/svg">
<path d="M5.08008 37V0.599998L36.8301 9.95L68.5301 0.599998V37H51.2301V29.9H55.4801V12.8L43.3301 16.25V37H30.2801V16.25L18.1301 12.8V29.9H22.3801V37H5.08008ZM78.0176 37V10.5H123.268V37H78.0176ZM90.5176 30.5H110.768V17H90.5176V30.5ZM127.266 17V10.5H142.516L154.516 26.5L166.516 10.5H180.266L160.516 37H148.516L133.266 17H127.266ZM179.768 17V10.5H198.518V37H186.018V17H179.768ZM186.018 7V-4.76837e-07H198.518V7H186.018ZM203.01 17V10.5H253.51V23.75L221.76 28.25V30.5H241.01V28.25L253.51 27V37H209.26V17H203.01ZM221.76 21.8L241.01 19.25V17H221.76V21.8Z" fill="white"/>
<path d="M295.3 22.3H283.47V34.27H275.42V22.3H263.59V14.53H275.42V2.49H283.47V14.53H295.3V22.3Z" fill="#38A935"/>
</svg>
