<svg width="370" height="80" viewBox="0 0 370 80" fill="none" xmlns="http://www.w3.org/2000/svg">
<path d="M22.1441 51.45C20.4441 51.45 19.1641 50.98 18.3041 50.04C17.4441 49.1 17.0141 47.8 17.0141 46.14V39.42H15.3041C14.9041 39.42 14.6341 39.35 14.4941 39.21C14.3741 39.07 14.3141 38.81 14.3141 38.43V37.62C14.3141 37.24 14.3741 36.98 14.4941 36.84C14.6341 36.68 14.9041 36.6 15.3041 36.6H17.0141V34.95C17.0141 34.53 17.0841 34.14 17.2241 33.78C17.3841 33.4 17.6241 32.93 17.9441 32.37C18.0641 32.13 18.1741 31.98 18.2741 31.92C18.3941 31.84 18.5941 31.8 18.8741 31.8H19.8641C20.2241 31.8 20.4741 31.89 20.6141 32.07C20.7741 32.23 20.8541 32.48 20.8541 32.82V36.6H24.3941C24.7941 36.6 25.0541 36.68 25.1741 36.84C25.3141 36.98 25.3841 37.24 25.3841 37.62V38.43C25.3841 38.81 25.3141 39.07 25.1741 39.21C25.0541 39.35 24.7941 39.42 24.3941 39.42H20.8541V46.02C20.8541 46.94 21.0141 47.61 21.3341 48.03C21.6541 48.43 22.2041 48.63 22.9841 48.63C23.4441 48.63 23.8341 48.58 24.1541 48.48C24.4741 48.36 24.8241 48.17 25.2041 47.91C25.3041 47.83 25.4141 47.79 25.5341 47.79C25.6541 47.79 25.7741 47.88 25.8941 48.06L26.7641 49.5C26.8441 49.6 26.8841 49.71 26.8841 49.83C26.8841 49.97 26.7841 50.11 26.5841 50.25C25.3441 51.05 23.8641 51.45 22.1441 51.45ZM30.3651 51C29.9651 51 29.6751 50.91 29.4951 50.73C29.3151 50.55 29.2251 50.28 29.2251 49.92V31.41C29.2251 31.11 29.2751 30.9 29.3751 30.78C29.4751 30.66 29.6851 30.6 30.0051 30.6H32.0751C32.3951 30.6 32.6051 30.66 32.7051 30.78C32.8251 30.9 32.8851 31.11 32.8851 31.41V38.13C33.5451 37.47 34.3151 36.98 35.1951 36.66C36.0751 36.32 37.1151 36.15 38.3151 36.15C39.9351 36.15 41.2351 36.59 42.2151 37.47C43.2151 38.33 43.7151 39.63 43.7151 41.37V49.92C43.7151 50.28 43.6251 50.55 43.4451 50.73C43.2851 50.91 43.0051 51 42.6051 51H41.0151C40.6151 51 40.3251 50.91 40.1451 50.73C39.9651 50.55 39.8751 50.28 39.8751 49.92V41.61C39.8751 40.63 39.6351 39.94 39.1551 39.54C38.6951 39.12 37.9851 38.91 37.0251 38.91C36.3651 38.91 35.7251 39.04 35.1051 39.3C34.5051 39.56 34.0151 39.92 33.6351 40.38C33.2551 40.84 33.0651 41.37 33.0651 41.97V49.92C33.0651 50.28 32.9751 50.55 32.7951 50.73C32.6351 50.91 32.3451 51 31.9251 51H30.3651ZM54.8662 51.45C53.3062 51.45 51.8962 51.19 50.6362 50.67C49.3762 50.13 48.3662 49.31 47.6062 48.21C46.8662 47.09 46.4962 45.7 46.4962 44.04C46.4962 41.46 47.1862 39.5 48.5662 38.16C49.9462 36.82 51.9062 36.15 54.4462 36.15C56.9662 36.15 58.8662 36.8 60.1462 38.1C61.4462 39.4 62.0962 41.28 62.0962 43.74C62.0962 44.44 61.7762 44.79 61.1362 44.79H50.1262C50.1262 46.11 50.5862 47.13 51.5062 47.85C52.4262 48.55 53.7062 48.9 55.3462 48.9C56.9262 48.9 58.3462 48.54 59.6062 47.82C59.7462 47.74 59.8562 47.7 59.9362 47.7C60.0762 47.7 60.1862 47.79 60.2662 47.97L60.9862 49.26C61.0462 49.38 61.0762 49.49 61.0762 49.59C61.0762 49.73 60.9862 49.86 60.8062 49.98C59.9862 50.48 59.0962 50.85 58.1362 51.09C57.1962 51.33 56.1062 51.45 54.8662 51.45ZM58.6162 42.57C58.6162 41.33 58.2662 40.36 57.5662 39.66C56.8862 38.96 55.8562 38.61 54.4762 38.61C53.0762 38.61 51.9962 38.97 51.2362 39.69C50.4962 40.41 50.1262 41.37 50.1262 42.57H58.6162Z" fill="white"/>
<path d="M71.0801 74V37.6L102.83 46.95L134.53 37.6V74H117.23V66.9H121.48V49.8L109.33 53.25V74H96.2801V53.25L84.1301 49.8V66.9H88.3801V74H71.0801ZM144.018 74V47.5H189.268V74H144.018ZM156.518 67.5H176.768V54H156.518V67.5ZM193.266 54V47.5H208.516L220.516 63.5L232.516 47.5H246.266L226.516 74H214.516L199.266 54H193.266ZM245.768 54V47.5H264.518V74H252.018V54H245.768ZM252.018 44V37H264.518V44H252.018ZM269.01 54V47.5H319.51V60.75L287.76 65.25V67.5H307.01V65.25L319.51 64V74H275.26V54H269.01ZM287.76 58.8L307.01 56.25V54H287.76V58.8Z" fill="white"/>
<path d="M361.3 59.3H349.47V71.27H341.42V59.3H329.59V51.53H341.42V39.49H349.47V51.53H361.3V59.3Z" fill="#38A935"/>
</svg>
