<svg width="80" height="98" viewBox="0 0 80 98" fill="none" xmlns="http://www.w3.org/2000/svg">
<path d="M38.896 46.888C37.232 46.888 36.4 45.5227 36.4 42.792C36.4 40.0613 37.0613 37.7147 38.384 35.752C40.688 36.4773 44.1227 36.84 48.688 36.84C48.6027 33.512 48.56 31.016 48.56 29.352C48.56 25.9813 50.1813 24.296 53.424 24.296C55.3013 24.296 56.9867 24.68 58.48 25.448C57.7973 27.112 57.456 29.16 57.456 31.592C57.456 34.024 57.4987 35.7093 57.584 36.648C60.1867 36.52 62.8107 36.456 65.456 36.456C68.8267 36.456 70.512 38.0773 70.512 41.32C70.512 43.1973 70.128 44.8827 69.36 46.376C67.696 45.6933 65.3493 45.352 62.32 45.352C61.3813 45.352 60.0587 45.3947 58.352 45.48C58.7787 50.1733 58.992 53.6507 58.992 55.912C58.992 57.576 57.6267 58.408 54.896 58.408C52.1653 58.408 49.8187 57.7467 47.856 56.424C48.5813 54.12 48.944 50.7493 48.944 46.312C44.8907 46.696 41.5413 46.888 38.896 46.888Z" fill="#1DAB2B"/>
<path d="M38.0173 81.04C36.284 81.04 35.044 80.5467 34.2973 79.56C33.5507 78.5467 33.1773 77.0667 33.1773 75.12C33.1773 73.1733 33.804 68.6933 35.0573 61.68H34.4173C32.7907 63.8133 31.444 66.36 30.3773 69.32C29.3107 72.28 28.6573 74.9467 28.4173 77.32C27.1107 78.5467 25.604 79.16 23.8973 79.16C23.204 79.16 22.5907 78.92 22.0573 78.44C21.5507 77.9333 21.044 77.0667 20.5373 75.84C19.5507 73.36 18.844 68.64 18.4173 61.68H17.7773C16.4707 67.4133 15.8173 71.4533 15.8173 73.8C15.8173 76.1467 16.2173 77.96 17.0173 79.24C15.4173 80.44 13.7507 81.04 12.0173 81.04C10.284 81.04 9.04401 80.5467 8.29734 79.56C7.55068 78.5467 7.17734 77.0533 7.17734 75.08C7.17734 73.08 8.01734 67.44 9.69734 58.16L7.57734 53.88C10.5907 51.9333 13.3373 50.96 15.8173 50.96C16.9107 50.96 17.8307 51.08 18.5773 51.32C19.3507 51.5333 20.084 51.96 20.7773 52.6C21.4973 53.24 22.084 54.1333 22.5373 55.28C23.5773 57.8667 24.324 61.64 24.7773 66.6H25.2573C26.644 62.52 28.564 59.0133 31.0173 56.08C32.3507 54.5067 33.9373 53.2667 35.7773 52.36C37.644 51.4533 39.6573 51 41.8173 51C43.8707 51 44.8973 52.24 44.8973 54.72C44.8973 55.5467 44.3773 58.6267 43.3373 63.96C42.324 69.2667 41.8173 72.4267 41.8173 73.44C41.8173 76.0267 42.2173 77.96 43.0173 79.24C41.4173 80.44 39.7507 81.04 38.0173 81.04Z" fill="white"/>
</svg>
